<?xml version="1.0" encoding="UTF-8"?>
<svg id="Layer_2" data-name="Layer 2" xmlns="http://www.w3.org/2000/svg" viewBox="0 0 275.58 248.24">
  <defs>
    <style>
      .cls-1 {
        fill: #e2b375;
      }

      .cls-2 {
        fill: #6e152b;
      }
    </style>
  </defs>
  <g id="Layer_1-2" data-name="Layer 1">
    <g>
      <g>
        <path class="cls-2" d="M105.57,191.3v1.73h-27.19v-1.73l4.57-.74c2.84-.74,3.46-1.36,3.46-4.82v-33.62c0-10.38-3.59-15.7-12.12-15.7-5.93,0-11,2.72-16.07,8.16.12,1.36.25,2.72.25,4.2v36.96c0,3.46.62,4.08,3.34,4.7l4.45.86v1.73h-27.19v-1.73l4.7-.74c2.97-.74,3.46-1.36,3.46-4.82v-33.87c0-10.01-3.58-15.45-11.5-15.45-5.93,0-11.25,2.84-16.32,8.28v41.29c0,3.34.5,3.83,3.21,4.45l4.57.86v1.73H0v-1.73l4.57-.74c2.84-.74,3.46-1.24,3.46-4.57v-47.84l-7.79-2.35v-1.48l18.17-4.45.99.5v11.37h.62c6.18-8.03,12.98-12.36,21.51-12.36s14.22,4.2,16.19,12.36h.74c6.55-8.16,13.35-12.36,21.63-12.36,11.13,0,17.68,6.55,17.68,19.65v36.72c0,3.46.49,4.08,3.33,4.7l4.45.86Z"/>
        <path class="cls-2" d="M148.11,183.02c13.1,0,19.9,5.69,19.9,15.08,0,13.47-13.84,22.01-32.63,22.01-16.56,0-27.56-3.96-27.56-12.85,0-6.18,5.81-10.14,13.84-13.47v-.74l-10.88-1.86-.37-.99,13.85-20.89c-8.28-2.97-13.35-9.27-13.35-18.79,0-12.73,10.51-21.14,25.34-21.14,6.43,0,11.99,1.36,16.19,4.08l12.12-8.9.87.37v9.64h-11.37c4.33,3.46,6.92,8.65,6.92,15.21,0,12.73-10.51,21.26-25.22,21.26-3.34,0-6.55-.37-9.4-1.11l-6.18,13.1h27.94ZM158.37,202.3c0-6.06-4.45-8.9-13.23-8.9h-19.53c-5.56,3.34-7.91,6.92-7.91,12.12,0,7.54,7.17,11.74,18.66,11.74,13.35,0,22.01-6.3,22.01-14.96ZM122.03,148.16c0,9.89,4.57,20.03,14.34,20.03,8.53,0,13.47-7.42,13.47-15.95,0-9.89-4.57-20.15-14.34-20.15-8.28,0-13.47,7.42-13.47,16.07Z"/>
        <path class="cls-2" d="M275.58,191.3v1.73h-27.19v-1.73l4.57-.74c2.84-.74,3.46-1.36,3.46-4.82v-33.62c0-10.38-3.58-15.7-12.11-15.7-5.94,0-11,2.72-16.07,8.16.13,1.36.25,2.72.25,4.2v36.96c0,3.46.62,4.08,3.34,4.7l4.45.86v1.73h-27.19v-1.73l4.7-.74c2.96-.74,3.46-1.36,3.46-4.82v-33.87c0-10.01-3.58-15.45-11.5-15.45-5.94,0-11.25,2.84-16.32,8.28v41.29c0,3.34.5,3.83,3.21,4.45l4.57.86v1.73h-27.19v-1.73l4.57-.74c2.84-.74,3.46-1.24,3.46-4.57v-47.84l-7.79-2.35v-1.48l18.17-4.45.99.5v11.37h.62c6.18-8.03,12.98-12.36,21.51-12.36s14.21,4.2,16.19,12.36h.74c6.55-8.16,13.35-12.36,21.63-12.36,11.13,0,17.67,6.55,17.67,19.65v36.72c0,3.46.5,4.08,3.34,4.7l4.45.86Z"/>
      </g>
      <g>
        <path class="cls-2" d="M0,247.93v-.55l.86-.17c1.07-.2,1.29-.72,1.38-1.92l1.01-15.43c.06-.92-.15-1.18-.98-1.29l-1.18-.2v-.55h6.26l6.06,16.64h.17l5.83-16.64h6.26v.55l-1.15.2c-.86.17-1.01.38-.95,1.29l.89,16.03c.06.98.23,1.15,1.15,1.32l1.09.17v.55h-8.05v-.55l1.09-.17c1.03-.17,1.21-.37,1.15-1.32l-.83-16.2h-.17l-6.61,18.24h-2.3l-6.75-18.24h-.17l-.72,15.57c-.06,1.32.29,1.72,1.55,1.95l1.2.17v.55H0Z"/>
        <path class="cls-2" d="M44.17,242.33h.55l-.89,5.6h-15.4v-.55l1.15-.2c.92-.14,1.06-.34,1.06-1.26v-16.09c0-.92-.15-1.12-1.06-1.26l-1.15-.2v-.55h15.34l.4,5.4h-.52l-1.06-2.1c-.95-1.78-1.38-2.24-3.1-2.36l-5.29-.2v8.74l6.67-.66.14.2-.06,1.35-6.75-.2v7.81c0,1.03.4,1.38,1.64,1.29l3.94-.15c1.78-.11,2.19-.57,3.42-2.87l.98-1.75Z"/>
        <path class="cls-2" d="M59.5,238.25h7.93v.55l-.89.2c-.84.17-.95.37-.95,1.21v7.87h-.32l-1.93-1.7c-1.84,1.26-4.05,1.87-6.2,1.87-5.63,0-9.97-3.65-9.97-9.94s4.25-10.8,10.72-10.8c2.76,0,5.34.86,6.92,1.9l.55,4.68h-.52l-1.09-1.64c-2.13-3.33-4.02-4.11-6.12-4.11-4.22,0-6.64,3.48-6.64,8.79,0,6.29,2.93,10,7.47,10,1.23,0,2.47-.32,3.59-1.01v-5.92c0-.86-.17-1.06-1.09-1.21l-1.46-.2v-.55Z"/>
        <path class="cls-2" d="M86.92,245.54c.49,1.26.92,1.58,2.18,1.84v.55h-8.27v-.55c2.5-.29,2.84-.6,2.3-2.01l-1.93-5.08h-7.21l-1.78,4.82c-.57,1.55-.32,1.96,2.27,2.27v.55h-6v-.55c1.26-.29,1.78-.66,2.36-2.1l6.35-15.66-.63-1.64.14-.17h3.45l6.78,17.73ZM74.31,239.45h6.58l-3.22-8.51h-.2l-3.16,8.51Z"/>
        <path class="cls-2" d="M109.17,238.25h7.93v.55l-.89.2c-.84.17-.95.37-.95,1.21v7.87h-.32l-1.93-1.7c-1.84,1.26-4.05,1.87-6.2,1.87-5.63,0-9.97-3.65-9.97-9.94s4.25-10.8,10.72-10.8c2.76,0,5.34.86,6.92,1.9l.55,4.68h-.52l-1.09-1.64c-2.13-3.33-4.02-4.11-6.12-4.11-4.22,0-6.64,3.48-6.64,8.79,0,6.29,2.93,10,7.47,10,1.24,0,2.47-.32,3.59-1.01v-5.92c0-.86-.17-1.06-1.09-1.21l-1.46-.2v-.55Z"/>
        <path class="cls-2" d="M119.44,238.16c0-6.26,4.08-10.63,10.26-10.63s9.97,3.91,9.97,10.14-4.05,10.54-10.23,10.54-10-3.85-10-10.05ZM135.84,238.91c0-4.8-1.87-10.57-6.58-10.57-4.19,0-6,4.54-6,8.59,0,4.51,1.9,10.49,6.58,10.49,4.19,0,6-4.45,6-8.5Z"/>
        <path class="cls-2" d="M157.78,242.1h.52l-.98,5.83h-15.28v-.55l1.15-.2c.92-.14,1.06-.34,1.06-1.26v-16.09c0-.92-.15-1.09-1.06-1.26l-1.15-.2v-.55h8.39v.55l-1.5.2c-.95.15-1.12.38-1.12,1.26v15.97c0,1.03.38,1.38,1.58,1.29l3.79-.15c1.78-.11,2.21-.55,3.48-2.9l1.12-1.95Z"/>
        <path class="cls-2" d="M179.99,237.44c0,6.44-4.57,10.49-11.4,10.49h-8.91v-.55l1.15-.2c.92-.14,1.06-.34,1.06-1.26v-16.09c0-.92-.15-1.12-1.06-1.26l-1.15-.2v-.55h9.02c6.35,0,11.29,3.31,11.29,9.63ZM168.73,247.07c4.51,0,7.44-3.56,7.44-9.19,0-6.06-3.33-9.19-8.24-9.19h-2.47v16.98c0,1.06.23,1.41,1.32,1.41h1.96Z"/>
        <path class="cls-2" d="M188.34,247.93v-.55l.86-.17c1.07-.2,1.29-.72,1.38-1.92l1.01-15.43c.06-.92-.15-1.18-.98-1.29l-1.18-.2v-.55h6.26l6.06,16.64h.17l5.83-16.64h6.26v.55l-1.15.2c-.86.17-1.01.38-.95,1.29l.89,16.03c.06.98.23,1.15,1.15,1.32l1.09.17v.55h-8.05v-.55l1.09-.17c1.03-.17,1.21-.37,1.15-1.32l-.83-16.2h-.17l-6.61,18.24h-2.3l-6.75-18.24h-.17l-.72,15.57c-.06,1.32.29,1.72,1.55,1.95l1.2.17v.55h-6.12Z"/>
        <path class="cls-2" d="M234.1,245.54c.49,1.26.92,1.58,2.18,1.84v.55h-8.27v-.55c2.5-.29,2.84-.6,2.3-2.01l-1.93-5.08h-7.21l-1.78,4.82c-.57,1.55-.32,1.96,2.27,2.27v.55h-6v-.55c1.26-.29,1.78-.66,2.36-2.1l6.35-15.66-.63-1.64.14-.17h3.45l6.78,17.73ZM221.49,239.45h6.58l-3.22-8.51h-.2l-3.16,8.51Z"/>
        <path class="cls-2" d="M256.14,247.38v.55h-3.88l-6.49-8.93-2.64-.17v7.1c0,.92.17,1.06,1.12,1.26l1.12.2v.55h-8.02v-.55l1.15-.2c.92-.14,1.06-.34,1.06-1.26v-16.09c0-.92-.15-1.12-1.06-1.26l-1.15-.2v-.55h9.14c5.2,0,8.21,1.73,8.21,5.37,0,3.08-2.21,4.71-5.17,5.26l6.61,8.93ZM243.13,228.68v9.31l2.67-.03c3.31,0,5.2-1.69,5.2-4.66,0-3.13-1.84-4.62-5.08-4.62h-2.79Z"/>
        <path class="cls-2" d="M275.58,233.33h-.52l-1.12-1.98c-1.24-2.07-1.61-2.53-3.39-2.64l-2.64-.17v17.38c0,.92.2,1.12,1.18,1.26l1.41.2v.55h-8.7v-.55l1.38-.2c.98-.14,1.18-.37,1.18-1.26v-17.38l-2.65.17c-1.72.11-2.15.57-3.39,2.61l-1.12,2.01h-.55l.8-5.52h17.38l.75,5.52Z"/>
      </g>
      <path class="cls-1" d="M174.73,20.6l-28.65,29-6.05-1.8-1.8-6.05,29-28.65-9.36-13.09h-40.16l-9.36,13.09,29,28.65-1.8,6.05-6.05,1.8-28.65-29-13.1,9.36v40.16l13.1,9.36,28.65-29,6.05,1.8,1.8,6.05-29,28.65,9.36,13.1h40.16l9.36-13.1-29-28.65,1.8-6.05,6.05-1.8,28.65,29,13.1-9.36V29.96l-13.1-9.36ZM120.63,48.56c-10.18,0-18.47-8.28-18.47-18.47v-3.98l22.18,22.45h-3.7ZM124.33,51.51l-22.18,22.44v-3.98c0-10.18,8.29-18.47,18.47-18.47h3.7ZM90.7,59.68c.32-3.78,2.75-6.96,6.14-8.31.64-.25.64-1.13,0-1.38-3.39-1.34-5.82-4.52-6.14-8.31v-10.21l8.51-6.08v4.7c0,9.07,5.68,16.83,13.67,19.94-7.99,3.11-13.67,10.87-13.67,19.94v4.7l-8.51-6.08v-8.92ZM136.31,36.58l-22.45-22.18h3.98c10.18,0,18.47,8.29,18.47,18.47v3.7ZM139.26,36.58v-3.7c0-10.18,8.28-18.47,18.47-18.47h3.98l-22.44,22.18ZM119.23,2.95h8.92c3.78.32,6.96,2.75,8.31,6.14.25.64,1.13.64,1.38,0,1.34-3.39,4.52-5.82,8.31-6.14h10.21l6.08,8.51h-4.7c-9.07,0-16.83,5.68-19.94,13.67-3.11-7.99-10.87-13.67-19.94-13.67h-4.7l6.08-8.51ZM139.26,63.49l22.44,22.18h-3.98c-10.18,0-18.47-8.29-18.47-18.47v-3.7ZM136.31,67.2c0,10.18-8.28,18.47-18.47,18.47h-3.98l22.44-22.18v3.71ZM156.35,97.13h-8.91c-3.78-.32-6.96-2.75-8.31-6.14-.25-.64-1.13-.64-1.38,0-1.34,3.39-4.52,5.82-8.31,6.14h-10.21l-6.08-8.51h4.7c9.07,0,16.83-5.68,19.94-13.67,3.11,7.99,10.87,13.67,19.94,13.67h4.7l-6.08,8.51ZM173.42,73.95l-22.18-22.44h3.7c10.18,0,18.47,8.28,18.47,18.47v3.98ZM151.25,48.56l22.18-22.45v3.98c0,10.18-8.29,18.47-18.47,18.47h-3.71ZM176.37,74.68v-4.7c0-9.07-5.68-16.83-13.67-19.94,7.99-3.11,13.67-10.87,13.67-19.94v-4.7l8.51,6.08v8.91c-.32,3.78-2.75,6.96-6.14,8.31-.64.25-.64,1.13,0,1.38,3.39,1.34,5.82,4.52,6.14,8.31v10.21l-8.51,6.08Z"/>
      <rect class="cls-1" y="207.89" width="100.28" height="3.4"/>
      <rect class="cls-1" x="175.29" y="207.89" width="100.28" height="3.4"/>
      <path class="cls-2" d="M269.59,136.29c-.49,0-.94-.09-1.36-.26-.42-.18-.78-.42-1.1-.74-.31-.32-.56-.68-.73-1.1s-.26-.87-.26-1.35.09-.93.26-1.35c.18-.42.42-.79.74-1.1s.68-.56,1.1-.74c.42-.18.88-.26,1.37-.26s.95.09,1.37.26c.42.17.79.42,1.1.73.31.31.55.68.73,1.09.17.42.26.87.26,1.36s-.09.95-.26,1.37c-.18.42-.42.79-.74,1.11-.32.32-.68.56-1.1.74-.42.18-.87.26-1.36.26ZM269.59,135.85c.42,0,.82-.08,1.19-.24.37-.16.69-.37.96-.65s.49-.6.64-.97c.15-.37.22-.77.22-1.19s-.07-.82-.22-1.19c-.15-.37-.36-.68-.63-.95-.27-.27-.58-.48-.95-.63-.36-.15-.76-.23-1.19-.23s-.83.08-1.2.23c-.37.15-.69.37-.96.65s-.48.6-.63.96c-.15.36-.23.76-.23,1.18s.07.82.23,1.19c.15.37.36.69.63.96.27.27.58.49.95.64s.76.23,1.19.23ZM268.21,134.79v-3.92h1.57c.5,0,.89.12,1.17.36.28.24.42.57.42.97s-.14.74-.42.98c-.28.24-.67.35-1.17.35h-.9v1.25h-.67ZM268.87,132.99h.86c.31,0,.56-.07.73-.21.17-.14.26-.33.26-.58s-.09-.44-.26-.57-.42-.2-.73-.2h-.86v1.56ZM270.76,134.79l-.98-1.51h.68l.98,1.51h-.68Z"/>
    </g>
  </g>
</svg>